<mxfile host="app.diagrams.net" modified="2023-02-15T17:33:54.785Z" agent="5.0 (Windows NT 10.0; Win64; x64) AppleWebKit/537.36 (KHTML, like Gecko) Chrome/109.0.0.0 Safari/537.36" etag="ZOaw1OoxijKyh4RetOEA" version="20.8.18" type="github">
  <diagram id="53IQXVl9icCSp_Kw3Ib1" name="Page-1">
    <mxGraphModel dx="1391" dy="772" grid="1" gridSize="10" guides="1" tooltips="1" connect="1" arrows="1" fold="1" page="1" pageScale="1" pageWidth="1100" pageHeight="850" math="0" shadow="0">
      <root>
        <mxCell id="0" />
        <mxCell id="1" parent="0" />
        <mxCell id="fSnZ5vnYTslC5NarKmr_-11" value="Trunk-based development branching strategy" style="text;html=1;strokeColor=none;fillColor=none;align=center;verticalAlign=middle;whiteSpace=wrap;rounded=0;fontSize=33;fontColor=#000000;" parent="1" vertex="1">
          <mxGeometry x="155" y="20" width="790" height="40" as="geometry" />
        </mxCell>
        <mxCell id="9hBKPDzoitwpIBdzFDQ7-28" value="features/A" style="text;html=1;strokeColor=none;fillColor=none;align=center;verticalAlign=middle;whiteSpace=wrap;overflow=hidden;fontSize=14;fontStyle=1;fontFamily=Courier New;" parent="1" vertex="1">
          <mxGeometry x="31" y="353" width="90" height="20" as="geometry" />
        </mxCell>
        <mxCell id="ck4O1efFFyVbqovqOwfO-2" value="main" style="text;html=1;strokeColor=none;fillColor=none;align=center;verticalAlign=middle;whiteSpace=wrap;overflow=hidden;fontSize=14;fontStyle=1;fontFamily=Courier New;" parent="1" vertex="1">
          <mxGeometry x="42" y="220" width="50" height="20" as="geometry" />
        </mxCell>
        <mxCell id="ck4O1efFFyVbqovqOwfO-11" value="" style="edgeStyle=orthogonalEdgeStyle;curved=1;rounded=0;orthogonalLoop=1;jettySize=auto;html=1;endArrow=none;endFill=0;strokeWidth=4;fontFamily=Courier New;fontSize=16;entryX=0;entryY=0.5;entryDx=0;entryDy=0;entryPerimeter=0;" parent="1" target="ck4O1efFFyVbqovqOwfO-25" edge="1">
          <mxGeometry relative="1" as="geometry">
            <mxPoint x="534.12" y="329" as="targetPoint" />
            <mxPoint x="492" y="234" as="sourcePoint" />
          </mxGeometry>
        </mxCell>
        <mxCell id="ck4O1efFFyVbqovqOwfO-22" value="Tag: 22.1.0" style="text;html=1;strokeColor=none;fillColor=none;align=center;verticalAlign=middle;whiteSpace=wrap;overflow=hidden;fontSize=14;" parent="1" vertex="1">
          <mxGeometry x="117" y="192" width="91" height="20" as="geometry" />
        </mxCell>
        <mxCell id="ck4O1efFFyVbqovqOwfO-24" value="" style="edgeStyle=orthogonalEdgeStyle;curved=1;rounded=0;orthogonalLoop=1;jettySize=auto;html=1;endArrow=none;endFill=0;strokeWidth=4;fontFamily=Courier New;fontSize=16;entryX=0;entryY=0.5;entryDx=0;entryDy=0;entryPerimeter=0;" parent="1" source="ck4O1efFFyVbqovqOwfO-25" target="ck4O1efFFyVbqovqOwfO-15" edge="1">
          <mxGeometry relative="1" as="geometry">
            <mxPoint x="746.8699999999999" y="314" as="targetPoint" />
            <Array as="points">
              <mxPoint x="585" y="160" />
              <mxPoint x="585" y="234" />
            </Array>
          </mxGeometry>
        </mxCell>
        <mxCell id="ck4O1efFFyVbqovqOwfO-26" value="Hotfix Commit" style="text;html=1;strokeColor=none;fillColor=none;align=center;verticalAlign=middle;whiteSpace=wrap;overflow=hidden;" parent="1" vertex="1">
          <mxGeometry x="609.3699999999999" y="165" width="80" height="30" as="geometry" />
        </mxCell>
        <mxCell id="ck4O1efFFyVbqovqOwfO-27" value="Tag: 22.2.1" style="text;html=1;strokeColor=none;fillColor=none;align=center;verticalAlign=middle;whiteSpace=wrap;overflow=hidden;fontSize=14;" parent="1" vertex="1">
          <mxGeometry x="609.37" y="191" width="82.63" height="20" as="geometry" />
        </mxCell>
        <mxCell id="_r8tFfjNaQo8byVIqAFJ-7" value="Hotfix Commit" style="text;html=1;strokeColor=none;fillColor=none;align=center;verticalAlign=middle;whiteSpace=wrap;overflow=hidden;" parent="1" vertex="1">
          <mxGeometry x="325" y="166" width="80" height="31" as="geometry" />
        </mxCell>
        <mxCell id="_r8tFfjNaQo8byVIqAFJ-22" value="Tag: 22.1.1" style="text;html=1;strokeColor=none;fillColor=none;align=center;verticalAlign=middle;whiteSpace=wrap;overflow=hidden;fontSize=14;" parent="1" vertex="1">
          <mxGeometry x="319.5" y="193" width="91" height="20" as="geometry" />
        </mxCell>
        <mxCell id="_r8tFfjNaQo8byVIqAFJ-40" value="" style="edgeStyle=orthogonalEdgeStyle;curved=1;rounded=0;orthogonalLoop=1;jettySize=auto;html=1;endArrow=none;endFill=0;strokeWidth=4;fontFamily=Courier New;fontSize=16;entryX=0;entryY=0.5;entryDx=0;entryDy=0;entryPerimeter=0;startArrow=none;" parent="1" source="_r8tFfjNaQo8byVIqAFJ-6" edge="1">
          <mxGeometry relative="1" as="geometry">
            <mxPoint x="334.8699999999999" y="234" as="targetPoint" />
            <mxPoint x="295.5" y="300" as="sourcePoint" />
            <Array as="points">
              <mxPoint x="319" y="234" />
            </Array>
          </mxGeometry>
        </mxCell>
        <mxCell id="pDLgfkYLmZ7nKOtSb_zo-12" value="hotfixes" style="text;html=1;strokeColor=none;fillColor=none;align=left;verticalAlign=middle;whiteSpace=wrap;overflow=hidden;fontSize=14;fontStyle=1;fontFamily=Courier New;" parent="1" vertex="1">
          <mxGeometry x="43.25" y="151" width="73.62" height="20" as="geometry" />
        </mxCell>
        <mxCell id="YvMvGw8tSOt4RGlKbDvN-7" value="" style="edgeStyle=orthogonalEdgeStyle;rounded=0;html=1;jettySize=auto;orthogonalLoop=1;plain-blue;endArrow=none;endFill=0;strokeWidth=4;strokeColor=#000000;startArrow=none;" parent="1" source="YvMvGw8tSOt4RGlKbDvN-18" edge="1">
          <mxGeometry x="-13.87999999999999" y="235" as="geometry">
            <mxPoint x="1080" y="235" as="targetPoint" />
            <mxPoint x="110" y="235" as="sourcePoint" />
          </mxGeometry>
        </mxCell>
        <mxCell id="YvMvGw8tSOt4RGlKbDvN-10" value="Released to TEST and QA" style="text;html=1;strokeColor=none;fillColor=none;align=left;verticalAlign=middle;whiteSpace=wrap;overflow=hidden;fontSize=14;fontStyle=0;fontColor=#009900;" parent="1" vertex="1">
          <mxGeometry x="40.06" y="239" width="102" height="39" as="geometry" />
        </mxCell>
        <mxCell id="YvMvGw8tSOt4RGlKbDvN-13" value="" style="edgeStyle=orthogonalEdgeStyle;rounded=0;html=1;jettySize=auto;orthogonalLoop=1;plain-blue;endArrow=none;endFill=0;strokeWidth=4;strokeColor=#000000;startArrow=none;" parent="1" target="YvMvGw8tSOt4RGlKbDvN-12" edge="1">
          <mxGeometry x="-13.87999999999999" y="235" as="geometry">
            <mxPoint x="1080" y="235" as="targetPoint" />
            <mxPoint x="110" y="235" as="sourcePoint" />
          </mxGeometry>
        </mxCell>
        <mxCell id="YvMvGw8tSOt4RGlKbDvN-12" value="" style="verticalLabelPosition=bottom;verticalAlign=top;html=1;strokeWidth=4;shape=mxgraph.flowchart.on-page_reference;plain-blue;gradientColor=none;fillColor=#B5E3Fe;strokeColor=#000000;" parent="1" vertex="1">
          <mxGeometry x="145.5" y="220" width="30" height="30" as="geometry" />
        </mxCell>
        <mxCell id="YvMvGw8tSOt4RGlKbDvN-18" value="" style="verticalLabelPosition=bottom;verticalAlign=top;html=1;strokeWidth=4;shape=mxgraph.flowchart.on-page_reference;strokeColor=#9673a6;fillColor=#e1d5e7;" parent="1" vertex="1">
          <mxGeometry x="460" y="220" width="30" height="30" as="geometry" />
        </mxCell>
        <mxCell id="YvMvGw8tSOt4RGlKbDvN-21" style="edgeStyle=orthogonalEdgeStyle;curved=1;rounded=0;html=1;entryX=0;entryY=0.5;entryPerimeter=0;endArrow=none;endFill=0;jettySize=auto;orthogonalLoop=1;strokeWidth=4;fontSize=15;entryDx=0;entryDy=0;exitX=1;exitY=0.5;exitDx=0;exitDy=0;exitPerimeter=0;" parent="1" edge="1">
          <mxGeometry relative="1" as="geometry">
            <mxPoint x="460" y="235" as="targetPoint" />
            <Array as="points">
              <mxPoint x="450" y="370" />
              <mxPoint x="450" y="235" />
            </Array>
            <mxPoint x="430" y="370" as="sourcePoint" />
          </mxGeometry>
        </mxCell>
        <mxCell id="YvMvGw8tSOt4RGlKbDvN-27" style="edgeStyle=orthogonalEdgeStyle;curved=1;rounded=0;html=1;entryX=0;entryY=0.5;entryPerimeter=0;endArrow=none;endFill=0;jettySize=auto;orthogonalLoop=1;strokeWidth=4;fontSize=15;entryDx=0;entryDy=0;" parent="1" edge="1">
          <mxGeometry relative="1" as="geometry">
            <mxPoint x="179" y="235" as="targetPoint" />
            <Array as="points">
              <mxPoint x="189" y="235" />
            </Array>
            <mxPoint x="199" y="365" as="sourcePoint" />
          </mxGeometry>
        </mxCell>
        <mxCell id="YvMvGw8tSOt4RGlKbDvN-31" value="" style="edgeStyle=orthogonalEdgeStyle;rounded=0;html=1;jettySize=auto;orthogonalLoop=1;plain-blue;endArrow=none;endFill=0;strokeWidth=4;strokeColor=#000000;startArrow=none;entryX=0;entryY=0.5;entryDx=0;entryDy=0;entryPerimeter=0;" parent="1" source="YvMvGw8tSOt4RGlKbDvN-12" target="YvMvGw8tSOt4RGlKbDvN-18" edge="1">
          <mxGeometry x="-13.87999999999999" y="235" as="geometry">
            <mxPoint x="385" y="235" as="targetPoint" />
            <mxPoint x="205.5" y="235" as="sourcePoint" />
          </mxGeometry>
        </mxCell>
        <mxCell id="ck4O1efFFyVbqovqOwfO-34" value="" style="verticalLabelPosition=bottom;verticalAlign=top;html=1;strokeWidth=4;shape=mxgraph.flowchart.on-page_reference;fillColor=#f8cecc;strokeColor=#b85450;" parent="1" vertex="1">
          <mxGeometry x="332" y="218" width="30" height="30" as="geometry" />
        </mxCell>
        <mxCell id="YvMvGw8tSOt4RGlKbDvN-42" style="edgeStyle=orthogonalEdgeStyle;curved=1;rounded=0;html=1;endArrow=none;endFill=0;jettySize=auto;orthogonalLoop=1;strokeWidth=4;fontSize=15;exitX=1;exitY=0.5;exitDx=0;exitDy=0;exitPerimeter=0;" parent="1" source="Sn_b6BLtuQmuvxoxsvPE-16" edge="1">
          <mxGeometry relative="1" as="geometry">
            <mxPoint x="787" y="238" as="targetPoint" />
            <Array as="points">
              <mxPoint x="740" y="468" />
              <mxPoint x="764" y="468" />
              <mxPoint x="764" y="238" />
            </Array>
            <mxPoint x="740" y="458" as="sourcePoint" />
          </mxGeometry>
        </mxCell>
        <mxCell id="YvMvGw8tSOt4RGlKbDvN-43" value="" style="verticalLabelPosition=bottom;verticalAlign=top;html=1;strokeWidth=4;shape=mxgraph.flowchart.on-page_reference;strokeColor=#d6b656;fillColor=#fff2cc;" parent="1" vertex="1">
          <mxGeometry x="787" y="220" width="30" height="30" as="geometry" />
        </mxCell>
        <mxCell id="kWK_K31KorMhjqKaLNin-6" value="" style="edgeStyle=orthogonalEdgeStyle;rounded=0;orthogonalLoop=1;jettySize=auto;html=1;endArrow=none;endFill=0;" parent="1" source="kWK_K31KorMhjqKaLNin-4" edge="1">
          <mxGeometry relative="1" as="geometry">
            <mxPoint x="175.5" y="200" as="targetPoint" />
          </mxGeometry>
        </mxCell>
        <mxCell id="kWK_K31KorMhjqKaLNin-5" value="" style="edgeStyle=orthogonalEdgeStyle;curved=1;rounded=0;orthogonalLoop=1;jettySize=auto;html=1;endArrow=none;endFill=0;strokeWidth=4;fontFamily=Courier New;fontSize=16;" parent="1" edge="1">
          <mxGeometry relative="1" as="geometry">
            <mxPoint x="271" y="160" as="targetPoint" />
            <mxPoint x="249" y="236" as="sourcePoint" />
            <Array as="points">
              <mxPoint x="261" y="236" />
              <mxPoint x="261" y="160" />
            </Array>
          </mxGeometry>
        </mxCell>
        <mxCell id="BjCNHWIiZIz2SVIGU6dc-6" value="Hotfix env" style="text;html=1;strokeColor=none;fillColor=none;align=left;verticalAlign=middle;whiteSpace=wrap;overflow=hidden;fontSize=14;fontStyle=0;fontColor=#009900;" parent="1" vertex="1">
          <mxGeometry x="41" y="175" width="72" height="20" as="geometry" />
        </mxCell>
        <mxCell id="Sn_b6BLtuQmuvxoxsvPE-1" value="DEV personal env" style="text;html=1;strokeColor=none;fillColor=none;align=center;verticalAlign=middle;whiteSpace=wrap;overflow=hidden;fontSize=14;fontStyle=0;fontColor=#009900;" parent="1" vertex="1">
          <mxGeometry x="33.81" y="468" width="67.25" height="60" as="geometry" />
        </mxCell>
        <mxCell id="Sn_b6BLtuQmuvxoxsvPE-2" value="" style="edgeStyle=orthogonalEdgeStyle;rounded=0;html=1;jettySize=auto;orthogonalLoop=1;plain-blue;endArrow=none;endFill=0;strokeWidth=2;strokeColor=#000000;startArrow=none;dashed=1;" parent="1" source="Sn_b6BLtuQmuvxoxsvPE-7" edge="1">
          <mxGeometry x="-117.38" y="370" as="geometry">
            <mxPoint x="1080" y="373" as="targetPoint" />
            <mxPoint x="100" y="374" as="sourcePoint" />
            <Array as="points">
              <mxPoint x="1042" y="373" />
            </Array>
          </mxGeometry>
        </mxCell>
        <mxCell id="Sn_b6BLtuQmuvxoxsvPE-3" value="DEV personal env" style="text;html=1;strokeColor=none;fillColor=none;align=center;verticalAlign=middle;whiteSpace=wrap;overflow=hidden;fontSize=14;fontStyle=0;fontColor=#009900;" parent="1" vertex="1">
          <mxGeometry x="33.81" y="373" width="66.19" height="59" as="geometry" />
        </mxCell>
        <mxCell id="Sn_b6BLtuQmuvxoxsvPE-4" value="" style="edgeStyle=orthogonalEdgeStyle;rounded=0;html=1;jettySize=auto;orthogonalLoop=1;plain-blue;endArrow=none;endFill=0;strokeWidth=2;strokeColor=#000000;startArrow=none;dashed=1;" parent="1" target="Sn_b6BLtuQmuvxoxsvPE-5" edge="1">
          <mxGeometry x="-117.38" y="370" as="geometry">
            <mxPoint x="1080" y="373" as="targetPoint" />
            <mxPoint x="100" y="374" as="sourcePoint" />
            <Array as="points">
              <mxPoint x="320" y="374" />
              <mxPoint x="320" y="374" />
            </Array>
          </mxGeometry>
        </mxCell>
        <mxCell id="Sn_b6BLtuQmuvxoxsvPE-5" value="" style="verticalLabelPosition=bottom;verticalAlign=top;html=1;strokeWidth=4;shape=mxgraph.flowchart.on-page_reference;strokeColor=#82b366;fillColor=#d5e8d4;gradientColor=#97d077;" parent="1" vertex="1">
          <mxGeometry x="198" y="358" width="30" height="30" as="geometry" />
        </mxCell>
        <mxCell id="Sn_b6BLtuQmuvxoxsvPE-6" value="" style="edgeStyle=orthogonalEdgeStyle;rounded=0;html=1;jettySize=auto;orthogonalLoop=1;plain-blue;endArrow=none;endFill=0;strokeWidth=4;strokeColor=#000000;startArrow=none;" parent="1" source="Sn_b6BLtuQmuvxoxsvPE-5" target="Sn_b6BLtuQmuvxoxsvPE-7" edge="1">
          <mxGeometry x="-296.38" y="370" as="geometry">
            <mxPoint x="901" y="373" as="targetPoint" />
            <mxPoint x="243" y="373" as="sourcePoint" />
            <Array as="points" />
          </mxGeometry>
        </mxCell>
        <mxCell id="Sn_b6BLtuQmuvxoxsvPE-7" value="" style="verticalLabelPosition=bottom;verticalAlign=top;html=1;strokeWidth=4;shape=mxgraph.flowchart.on-page_reference;gradientColor=#97d077;strokeColor=#82b366;fillColor=#d5e8d4;" parent="1" vertex="1">
          <mxGeometry x="400" y="358" width="30" height="30" as="geometry" />
        </mxCell>
        <mxCell id="Sn_b6BLtuQmuvxoxsvPE-8" value="" style="edgeStyle=orthogonalEdgeStyle;rounded=0;orthogonalLoop=1;jettySize=auto;html=1;strokeWidth=4;endArrow=none;endFill=0;entryX=0;entryY=0.5;entryDx=0;entryDy=0;entryPerimeter=0;" parent="1" source="Sn_b6BLtuQmuvxoxsvPE-9" target="Sn_b6BLtuQmuvxoxsvPE-16" edge="1">
          <mxGeometry relative="1" as="geometry">
            <Array as="points">
              <mxPoint x="520" y="468" />
            </Array>
          </mxGeometry>
        </mxCell>
        <mxCell id="Sn_b6BLtuQmuvxoxsvPE-9" value="" style="verticalLabelPosition=bottom;verticalAlign=top;html=1;strokeWidth=4;shape=mxgraph.flowchart.on-page_reference;strokeColor=#82b366;fillColor=#d5e8d4;gradientColor=#97d077;" parent="1" vertex="1">
          <mxGeometry x="440" y="453" width="30" height="30" as="geometry" />
        </mxCell>
        <mxCell id="Sn_b6BLtuQmuvxoxsvPE-10" value="" style="verticalLabelPosition=bottom;verticalAlign=top;html=1;strokeWidth=4;shape=mxgraph.flowchart.on-page_reference;strokeColor=#82b366;fillColor=#d5e8d4;gradientColor=#97d077;" parent="1" vertex="1">
          <mxGeometry x="542.63" y="453" width="30" height="30" as="geometry" />
        </mxCell>
        <mxCell id="Sn_b6BLtuQmuvxoxsvPE-11" value="" style="edgeStyle=orthogonalEdgeStyle;rounded=0;html=1;jettySize=auto;orthogonalLoop=1;plain-blue;endArrow=none;endFill=0;strokeWidth=2;strokeColor=#000000;startArrow=none;dashed=1;" parent="1" edge="1">
          <mxGeometry x="-105.81" y="469" as="geometry">
            <mxPoint x="1080" y="469" as="targetPoint" />
            <mxPoint x="572.6300000000001" y="469" as="sourcePoint" />
            <Array as="points" />
          </mxGeometry>
        </mxCell>
        <mxCell id="Sn_b6BLtuQmuvxoxsvPE-12" value="" style="edgeStyle=orthogonalEdgeStyle;rounded=0;html=1;jettySize=auto;orthogonalLoop=1;plain-blue;endArrow=none;endFill=0;strokeWidth=2;strokeColor=#000000;startArrow=none;dashed=1;" parent="1" target="Sn_b6BLtuQmuvxoxsvPE-14" edge="1">
          <mxGeometry x="-105.81" y="464" as="geometry">
            <mxPoint x="357" y="468" as="targetPoint" />
            <mxPoint x="111.56999999999994" y="468" as="sourcePoint" />
            <Array as="points" />
          </mxGeometry>
        </mxCell>
        <mxCell id="Sn_b6BLtuQmuvxoxsvPE-13" value="" style="edgeStyle=orthogonalEdgeStyle;rounded=0;orthogonalLoop=1;jettySize=auto;html=1;strokeWidth=4;endArrow=none;endFill=0;" parent="1" source="Sn_b6BLtuQmuvxoxsvPE-14" target="Sn_b6BLtuQmuvxoxsvPE-9" edge="1">
          <mxGeometry relative="1" as="geometry" />
        </mxCell>
        <mxCell id="Sn_b6BLtuQmuvxoxsvPE-14" value="" style="verticalLabelPosition=bottom;verticalAlign=top;html=1;strokeWidth=4;shape=mxgraph.flowchart.on-page_reference;strokeColor=#82b366;fillColor=#d5e8d4;gradientColor=#97d077;" parent="1" vertex="1">
          <mxGeometry x="326" y="453" width="30" height="30" as="geometry" />
        </mxCell>
        <mxCell id="Sn_b6BLtuQmuvxoxsvPE-16" value="" style="verticalLabelPosition=bottom;verticalAlign=top;html=1;strokeWidth=4;shape=mxgraph.flowchart.on-page_reference;strokeColor=#82b366;fillColor=#d5e8d4;gradientColor=#97d077;" parent="1" vertex="1">
          <mxGeometry x="719" y="454" width="30" height="30" as="geometry" />
        </mxCell>
        <mxCell id="Sn_b6BLtuQmuvxoxsvPE-17" value="Tag: 22.2.0" style="text;html=1;strokeColor=none;fillColor=none;align=center;verticalAlign=middle;whiteSpace=wrap;overflow=hidden;fontSize=14;" parent="1" vertex="1">
          <mxGeometry x="425.63" y="192" width="91" height="20" as="geometry" />
        </mxCell>
        <mxCell id="Sn_b6BLtuQmuvxoxsvPE-18" value="" style="verticalLabelPosition=bottom;verticalAlign=top;html=1;strokeWidth=4;shape=mxgraph.flowchart.on-page_reference;plain-blue;gradientColor=none;fillColor=#B5E3Fe;strokeColor=#000000;" parent="1" vertex="1">
          <mxGeometry x="218.5" y="220" width="30" height="30" as="geometry" />
        </mxCell>
        <mxCell id="Sn_b6BLtuQmuvxoxsvPE-19" style="edgeStyle=orthogonalEdgeStyle;curved=1;rounded=0;html=1;endArrow=none;endFill=0;jettySize=auto;orthogonalLoop=1;strokeWidth=4;fontSize=15;" parent="1" edge="1">
          <mxGeometry relative="1" as="geometry">
            <mxPoint x="248.5" y="238" as="targetPoint" />
            <Array as="points">
              <mxPoint x="285" y="469" />
              <mxPoint x="285" y="238" />
            </Array>
            <mxPoint x="325" y="469" as="sourcePoint" />
          </mxGeometry>
        </mxCell>
        <mxCell id="Sn_b6BLtuQmuvxoxsvPE-21" value="Tag: 22.3.0" style="text;html=1;strokeColor=none;fillColor=none;align=center;verticalAlign=middle;whiteSpace=wrap;overflow=hidden;fontSize=14;" parent="1" vertex="1">
          <mxGeometry x="815" y="191" width="91" height="20" as="geometry" />
        </mxCell>
        <mxCell id="Sn_b6BLtuQmuvxoxsvPE-22" value="features/B" style="text;html=1;strokeColor=none;fillColor=none;align=center;verticalAlign=middle;whiteSpace=wrap;overflow=hidden;fontSize=14;fontStyle=1;fontFamily=Courier New;" parent="1" vertex="1">
          <mxGeometry x="31" y="448" width="90" height="20" as="geometry" />
        </mxCell>
        <mxCell id="ck4O1efFFyVbqovqOwfO-15" value="" style="verticalLabelPosition=bottom;verticalAlign=top;html=1;strokeWidth=4;shape=mxgraph.flowchart.on-page_reference;strokeColor=#b85450;fillColor=#f8cecc;" parent="1" vertex="1">
          <mxGeometry x="601.3699999999999" y="219" width="30" height="30" as="geometry" />
        </mxCell>
        <mxCell id="glMm8YWOMQ7_c-ZB_sfa-3" value="" style="edgeStyle=orthogonalEdgeStyle;rounded=0;html=1;jettySize=auto;orthogonalLoop=1;plain-blue;endArrow=none;endFill=0;strokeWidth=2;strokeColor=#000000;startArrow=none;dashed=1;exitX=1.11;exitY=0.45;exitDx=0;exitDy=0;exitPerimeter=0;" edge="1" parent="1" source="pDLgfkYLmZ7nKOtSb_zo-12">
          <mxGeometry x="-119.38" y="157" as="geometry">
            <mxPoint x="1078" y="160" as="targetPoint" />
            <mxPoint x="428" y="160" as="sourcePoint" />
            <Array as="points" />
          </mxGeometry>
        </mxCell>
        <mxCell id="ck4O1efFFyVbqovqOwfO-25" value="" style="verticalLabelPosition=bottom;verticalAlign=top;html=1;strokeWidth=4;shape=mxgraph.flowchart.on-page_reference;plain-blue;gradientColor=#EA6B66;strokeColor=#B85450;fillColor=#F8CECC;" parent="1" vertex="1">
          <mxGeometry x="535.9999999999999" y="146" width="30" height="30" as="geometry" />
        </mxCell>
        <mxCell id="_r8tFfjNaQo8byVIqAFJ-6" value="" style="verticalLabelPosition=bottom;verticalAlign=top;html=1;strokeWidth=4;shape=mxgraph.flowchart.on-page_reference;plain-blue;gradientColor=#EA6B66;strokeColor=#B85450;fillColor=#F8CECC;" parent="1" vertex="1">
          <mxGeometry x="272.9999999999999" y="145" width="30" height="30" as="geometry" />
        </mxCell>
      </root>
    </mxGraphModel>
  </diagram>
</mxfile>
